<?xml version="1.0" standalone="no"?><!DOCTYPE svg PUBLIC "-//W3C//DTD SVG 1.1//EN" "http://www.w3.org/Graphics/SVG/1.1/DTD/svg11.dtd"><svg t="1611135133592" class="icon" viewBox="0 0 1024 1024" version="1.1" xmlns="http://www.w3.org/2000/svg" p-id="13739" xmlns:xlink="http://www.w3.org/1999/xlink" width="200" height="200"><defs><style type="text/css"></style></defs><path d="M512 901.12c-20.48 0-37.546667-10.24-51.2-23.893333L126.293333 481.28c-17.066667-20.48-20.48-54.613333-6.826666-78.506667l116.053333-201.386666c13.653333-20.48 34.133333-34.133333 58.026667-34.133334H716.8c20.48 0 34.133333 13.653333 34.133333 34.133334s-13.653333 34.133333-34.133333 34.133333H293.546667l-116.053334 201.386667L512 832.853333l334.506667-392.533333-44.373334-64.853333H395.946667l-44.373334 64.853333 187.733334 218.453333c13.653333 13.653333 10.24 34.133333-3.413334 47.786667s-37.546667 10.24-47.786666-3.413333l-187.733334-218.453334c-20.48-23.893333-20.48-58.026667-3.413333-81.92L341.333333 337.92c13.653333-20.48 34.133333-30.72 58.026667-30.72h406.186667c23.893333 0 44.373333 10.24 58.026666 30.72l44.373334 64.853333c17.066667 23.893333 13.653333 58.026667-3.413334 81.92l-334.506666 392.533334c-17.066667 13.653333-37.546667 23.893333-58.026667 23.893333z" fill="#1784F9" p-id="13740"></path></svg>